<svg width="122" height="33" viewBox="0 0 122 33" fill="none" xmlns="http://www.w3.org/2000/svg">
  <rect width="2.81004" height="33" transform="matrix(-1 0 0 1 26.7681 0)" fill="white"/>
  <rect width="2.81004" height="14.1223" transform="matrix(4.37114e-08 1 1 -4.37114e-08 1.40625 0)" fill="white"/>
  <rect width="2.81004" height="28.2085" transform="matrix(-1 0 0 1 21.9766 0)" fill="white"/>
  <rect width="2.81004" height="33" transform="matrix(-1 0 0 1 2.81055 0)" fill="white"/>
  <rect width="2.81004" height="28.2085" transform="matrix(-1 0 0 1 7.60205 4.7915)" fill="white"/>
  <rect width="2.81004" height="23.417" transform="matrix(-1 0 0 1 12.3931 4.7915)" fill="white"/>
  <rect width="2.81004" height="28.2085" transform="matrix(-1 0 0 1 17.1846 0)" fill="white"/>
  <rect width="2.81004" height="7.5655" transform="matrix(4.37114e-08 1 1 -4.37114e-08 4.82764 4.7915)" fill="white"/>
  <rect width="2.81004" height="7.5655" transform="matrix(4.37114e-08 1 1 -4.37114e-08 14.4111 25.3984)" fill="white"/>
  <rect width="2.81004" height="2.81004" transform="matrix(4.37114e-08 1 1 -4.37114e-08 19.166 25.3984)" fill="white"/>
  <rect width="2.81004" height="16.572" transform="matrix(4.37114e-08 1 1 -4.37114e-08 9.58398 30.1899)" fill="white"/>
  <path fill-rule="evenodd" clip-rule="evenodd" d="M46.372 8.75439V19.5604L38.5527 8.75439H35.7202V24.2817H38.5527V13.4757L46.372 24.2817H49.2044V8.75439H46.372Z" fill="white"/>
  <path fill-rule="evenodd" clip-rule="evenodd" d="M63.9417 8.75439V22.6333H56.1225V8.75439H53.29V24.2817H66.7743V8.75439H63.9417Z" fill="white"/>
  <path fill-rule="evenodd" clip-rule="evenodd" d="M70.043 8.75439V24.2817H80.2846L81.0755 22.6333H72.9228V8.75439H70.043Z" fill="white"/>
  <path fill-rule="evenodd" clip-rule="evenodd" d="M83.1182 24.2817H85.9785V8.75439H83.1182V24.2817Z" fill="white"/>
  <path fill-rule="evenodd" clip-rule="evenodd" d="M101.125 8.75439V19.5604L93.3057 8.75439H90.4731V24.2817H93.3057V13.4757L101.125 24.2817H103.957V8.75439H101.125Z" fill="white"/>
  <path fill-rule="evenodd" clip-rule="evenodd" d="M117.657 8.75439L112.669 15.5921H110.037V8.75439H107.227V24.2817H110.037V17.2404H112.669L117.815 24.2817H121.12L115.321 16.4061L120.922 8.75439H117.657Z" fill="white"/>
</svg>
